<svg width="234" height="175" viewBox="0 0 234 175" fill="none" xmlns="http://www.w3.org/2000/svg">
<g clip-path="url(#clip0_1050_33758)">
<path d="M216.801 108.136C216.838 132.056 208.889 155.308 194.208 174.221H22.593C7.91165 155.308 -0.0376713 132.056 -0.000149109 108.136C-0.000149109 48.4122 48.5341 0 108.403 0C168.272 0 216.801 48.4122 216.801 108.136Z" fill="white"/>
<path opacity="0.1" d="M216.801 108.136C216.838 132.056 208.889 155.308 194.208 174.221H22.593C7.91165 155.308 -0.0376713 132.056 -0.000149109 108.136C-0.000149109 48.4122 48.5341 0 108.403 0C168.272 0 216.801 48.4122 216.801 108.136Z" fill="#017AFE"/>
<path d="M218.512 1.38281H132.513C124.124 1.38281 117.324 8.16631 117.324 16.5342V16.5345C117.324 24.9024 124.124 31.6859 132.513 31.6859H218.512C226.9 31.6859 233.7 24.9024 233.7 16.5345V16.5342C233.7 8.16631 226.9 1.38281 218.512 1.38281Z" fill="white"/>
<path d="M218.512 31.9854H132.513C128.417 31.9662 124.497 30.3299 121.608 27.4345C118.719 24.539 117.097 20.62 117.097 16.5348C117.097 12.4495 118.719 8.53053 121.608 5.63506C124.497 2.73959 128.417 1.10331 132.513 1.08415H218.512C220.552 1.07461 222.574 1.46721 224.461 2.23939C226.349 3.01158 228.065 4.14815 229.511 5.58382C230.956 7.01949 232.104 8.72598 232.887 10.6053C233.67 12.4846 234.073 14.4996 234.073 16.5348C234.073 18.5699 233.67 20.585 232.887 22.4642C232.104 24.3435 230.956 26.05 229.511 27.4857C228.065 28.9214 226.349 30.0579 224.461 30.8301C222.574 31.6023 220.552 31.9949 218.512 31.9854ZM132.513 1.68231C128.564 1.68231 124.777 3.24706 121.985 6.03234C119.193 8.81762 117.625 12.5953 117.625 16.5342C117.625 20.4732 119.193 24.2509 121.985 27.0362C124.777 29.8214 128.564 31.3862 132.513 31.3862H218.512C222.46 31.3862 226.247 29.8214 229.039 27.0362C231.831 24.2509 233.4 20.4732 233.4 16.5342C233.4 12.5953 231.831 8.81762 229.039 6.03234C226.247 3.24706 222.46 1.68231 218.512 1.68231H132.513Z" fill="#474646"/>
<path d="M62.058 35.7999C62.058 35.7999 61.1324 46.7339 58.5929 50.662C51.2822 61.9702 48.9945 74.7966 55.9928 81.6424C62.9912 88.4883 108.387 89.3834 112.1 73.9877C115.227 61.0261 109.038 59.5171 107.718 48.7554C107.12 43.8862 105.419 33.668 105.419 33.668" fill="#474646"/>
<path d="M100.793 71.3509C100.714 71.3408 99.8447 85.7373 83.0796 84.4822C71.4732 83.6148 67.3349 71.3295 67.0674 71.3295C68.3188 71.0641 70.4262 70.6784 70.9819 70.3827C72.8097 69.4029 75.0701 68.3836 75.6598 64.8429C76.0005 62.8038 75.4234 52.3626 75.6009 50.2969L93.4166 54.2637C93.1676 58.6242 91.4253 68.7333 97.5321 70.5224C98.5494 70.8204 99.644 71.0923 100.793 71.3509Z" fill="#FA9D69"/>
<path opacity="0.5" d="M93.6677 66.3935C93.3887 65.4964 93.209 64.5714 93.1318 63.6352C92.9359 61.4988 92.975 59.3473 93.2483 57.2193C89.6276 56.7317 86.2165 55.2408 83.4026 52.916C83.0718 54.1348 81.2525 59.4604 81.7564 60.6186C82.7076 62.8067 87.1811 66.3935 93.6677 66.3935Z" fill="#474646"/>
<path d="M91.1303 61.9062C84.0952 62.4598 75.0582 59.4966 73.3418 50.1334L71.7927 41.6851C70.0764 32.3219 73.6144 23.8322 82.4517 22.2199C91.2891 20.6076 99.286 26.9926 101.003 36.3557L101.688 40.0963C102.347 43.6889 103.682 60.9182 91.1303 61.9062Z" fill="#FA9D69"/>
<path d="M94.0023 48.9563L94.0196 48.9536C94.3776 48.8857 94.7316 48.7981 95.0799 48.6912C95.6001 48.5278 96.2815 48.2566 96.1959 47.7882C96.0982 47.2546 93.5778 41.7659 93.2909 41.1416C93.2646 41.0891 93.2188 41.0489 93.1633 41.0294C93.1078 41.01 93.0469 41.0127 92.9935 41.0372C92.94 41.0617 92.8981 41.1059 92.8767 41.1606C92.8553 41.2152 92.856 41.276 92.8787 41.3302C93.9536 43.6678 95.6839 47.5106 95.7496 47.8698C95.6904 48.0356 94.8267 48.3456 93.9382 48.5087C93.8811 48.5198 93.8304 48.5523 93.7966 48.5997C93.7628 48.647 93.7486 48.7054 93.7568 48.7629C93.765 48.8204 93.7951 48.8726 93.8408 48.9086C93.8865 48.9446 93.9443 48.9617 94.0023 48.9563Z" fill="#474646"/>
<path d="M92.6705 52.9862C94.1115 52.8084 95.4904 52.2954 96.6961 51.4884C96.7466 51.456 96.7822 51.4049 96.795 51.3464C96.8077 51.2878 96.7967 51.2265 96.7642 51.1761C96.7317 51.1257 96.6805 51.0902 96.6218 51.0774C96.5631 51.0647 96.5017 51.0757 96.4511 51.1081C93.8421 52.7809 91.2584 53.0385 88.9792 51.8524C88.9332 51.8271 88.8858 51.8044 88.8372 51.7845C88.7807 51.7638 88.7184 51.7663 88.6638 51.7915C88.6093 51.8166 88.567 51.8624 88.5462 51.9187C88.5255 51.975 88.528 52.0372 88.5533 52.0916C88.5785 52.1461 88.6244 52.1883 88.6808 52.2089C88.6985 52.2164 88.7285 52.2324 88.7697 52.2542C89.9681 52.8798 91.3262 53.1347 92.6705 52.9862Z" fill="#474646"/>
<path d="M64.7133 44.583L72.6349 43.1841C78.6425 40.802 80.5187 30.4641 80.5187 30.4641C80.5187 30.4641 87.7541 37.5859 105.419 33.669C105.419 33.669 102.033 9.10619 75.9286 16.0822C67.5114 18.3314 61.4284 26.7419 62.1101 38.0372C62.5878 45.9516 64.7133 44.583 64.7133 44.583Z" fill="#474646"/>
<path d="M74.4136 52.8866C71.728 53.3767 69.0253 50.9076 68.5341 48.2284C68.0428 45.5493 69.9493 43.6743 72.6349 43.1846L74.3479 44.7272L76.7224 52.4652L74.4136 52.8866Z" fill="#FA9D69"/>
<path d="M95.2655 36.8356C95.943 36.3754 96.7305 36.1023 97.5481 36.0441C97.9591 36.0121 98.3726 36.0421 98.7746 36.1331C99.1801 36.2231 99.5727 36.3636 99.9431 36.5511L99.9547 36.5566C99.9957 36.575 100.042 36.5769 100.085 36.5617C100.127 36.5465 100.162 36.5155 100.182 36.4752C100.201 36.435 100.205 36.3886 100.191 36.3458C100.177 36.3031 100.147 36.2674 100.108 36.2463C99.7156 36.0307 99.2978 35.8652 98.8642 35.7538C98.4275 35.6399 97.9762 35.592 97.5253 35.6118C96.6116 35.646 95.7239 35.9243 94.9548 36.4176C94.9262 36.4363 94.9016 36.4604 94.8824 36.4886C94.8631 36.5168 94.8497 36.5485 94.8427 36.5819C94.8357 36.6153 94.8354 36.6497 94.8418 36.6832C94.8482 36.7167 94.8611 36.7486 94.8799 36.7772C94.8986 36.8057 94.9228 36.8302 94.9511 36.8494C94.9793 36.8686 95.0111 36.8821 95.0446 36.889C95.078 36.8959 95.1126 36.8962 95.1461 36.8899C95.1797 36.8835 95.2117 36.8706 95.2403 36.8519L95.2465 36.8478L95.2655 36.8356Z" fill="#474646"/>
<path d="M88.0366 37.7021C87.1428 37.5085 86.2134 37.5576 85.3451 37.8442C84.9159 37.9831 84.5099 38.1856 84.1408 38.4447C83.7734 38.7002 83.4399 39.001 83.1481 39.3399C83.1324 39.3564 83.1202 39.3759 83.112 39.3971C83.1039 39.4183 83.1001 39.441 83.1007 39.4637C83.102 39.5096 83.1215 39.5531 83.1549 39.5846C83.1883 39.6162 83.2329 39.6332 83.2789 39.6319C83.3249 39.6306 83.3686 39.6112 83.4002 39.5778L83.4094 39.5683C83.6906 39.2633 84.0091 38.9949 84.3575 38.7693C84.7021 38.5434 85.0789 38.3708 85.4753 38.2575C86.2625 38.0261 87.0971 38.007 87.8941 38.2021L87.9139 38.2072C87.9807 38.2246 88.0517 38.2148 88.1113 38.1799C88.1709 38.1451 88.2142 38.0881 88.2316 38.0214C88.249 37.9548 88.2392 37.8839 88.2043 37.8245C88.1694 37.7651 88.1122 37.7219 88.0454 37.7045L88.0366 37.7021Z" fill="#474646"/>
<path d="M92.9632 55.111C93.2243 55.083 93.4826 55.0329 93.7352 54.9611C93.7931 54.9449 93.8421 54.9064 93.8715 54.8541C93.9009 54.8018 93.9083 54.74 93.8921 54.6822C93.8758 54.6245 93.8372 54.5756 93.7848 54.5462C93.7324 54.5169 93.6704 54.5095 93.6125 54.5257C92.0927 54.9519 91.2335 54.3697 91.1974 54.3446C91.1485 54.3098 91.0876 54.2959 91.0284 54.3059C90.9691 54.3159 90.9163 54.3489 90.8814 54.3978C90.8466 54.4466 90.8327 54.5073 90.8427 54.5664C90.8527 54.6255 90.8858 54.6782 90.9348 54.713C91.5445 55.0756 92.2613 55.2162 92.9632 55.111Z" fill="#474646"/>
<path d="M72.6424 43.0551C77.9843 41.1791 79.8101 37.5538 80.4011 34.8427C80.7838 33.0346 80.7838 31.1666 80.4011 29.3584L80.2359 29.4005C80.6127 31.1852 80.6115 33.0287 80.2325 34.8128C79.6496 37.4794 77.8477 41.0459 72.5848 42.8954L72.6424 43.0551Z" fill="#474646"/>
<path opacity="0.1" d="M86.884 49.6009C88.0421 49.4838 88.9112 48.7018 88.8251 47.8544C88.7389 47.0069 87.7302 46.4149 86.5721 46.532C85.4139 46.6492 84.5448 47.4311 84.6309 48.2786C84.7171 49.126 85.7258 49.718 86.884 49.6009Z" fill="#474646"/>
<path opacity="0.1" d="M99.1558 46.4358C99.2444 47.282 100.253 47.8734 101.411 47.7578C101.611 47.7375 101.809 47.6965 102.001 47.6355C102.072 46.6295 102.093 45.6609 102.079 44.7637C101.759 44.678 101.427 44.6526 101.098 44.6889C99.9394 44.8045 99.071 45.5861 99.1558 46.4358Z" fill="#474646"/>
<path d="M48.1285 156.889L46.1167 174.66H119.057L117.932 156.777L48.1285 156.889Z" fill="#474646"/>
<path d="M82.695 80.9043C71.0804 80.3585 70.5915 70.5239 70.5915 70.5239C70.5915 70.5239 64.8366 70.8951 61.0108 71.4113C54.7476 72.2565 48.108 74.4021 45.0947 79.5969C42.9286 83.3323 42.407 84.0083 44.3775 105.086C45.8043 120.348 48.1285 156.89 48.1285 156.89L117.932 156.778C117.932 156.778 121.038 109.917 121.624 103.046C122.743 89.931 124.508 71.446 120.761 70.5233C116.395 69.4483 102.143 71.2156 97.5338 70.5233C97.4558 70.5131 98.5119 81.6483 82.695 80.9043Z" fill="#017AFE"/>
<path d="M206.408 29.4979C206.509 29.2692 206.656 29.0635 206.84 28.8934C207.024 28.7233 207.241 28.5923 207.477 28.5086C207.714 28.4248 207.965 28.3899 208.215 28.4061C208.465 28.4223 208.71 28.4892 208.933 28.6027C209.358 28.8373 209.678 29.2242 209.828 29.6851C209.978 30.1459 209.947 30.6465 209.741 31.0854L208.731 33.3594L215.221 27.6426C215.931 26.9945 217.219 26.6523 217.895 27.4951C218.176 27.8025 218.344 28.1959 218.373 28.6111C218.401 29.0262 218.287 29.4386 218.05 29.781C218.058 29.7864 218.066 29.7928 218.073 29.8C218.077 29.8059 218.081 29.8121 218.084 29.8184L219.18 28.8189C219.381 28.635 219.621 28.4981 219.883 28.418C220.144 28.3379 220.42 28.3166 220.69 28.3556C220.961 28.3946 221.219 28.493 221.447 28.6436C221.674 28.7942 221.866 28.9934 222.007 29.2267C222.225 29.6037 222.305 30.0442 222.234 30.4734C222.164 30.9027 221.946 31.2944 221.62 31.5823L221.153 32.0074C221.16 32.0272 221.162 32.0479 221.161 32.0686C221.539 31.8559 221.98 31.7828 222.407 31.8623C222.833 31.9417 223.218 32.1686 223.493 32.503C223.788 32.888 223.926 33.3704 223.878 33.8526C223.83 34.3348 223.6 34.7809 223.235 35.1005L222.089 36.1459C222.116 36.1425 222.143 36.1455 222.169 36.1548C222.194 36.164 222.217 36.1791 222.235 36.199C222.256 36.2235 222.269 36.2537 222.273 36.2856C222.656 36.1913 223.059 36.2216 223.423 36.372C223.787 36.5225 224.093 36.7852 224.297 37.1217C224.514 37.4987 224.594 37.9391 224.524 38.3684C224.453 38.7977 224.236 39.1894 223.909 39.4773L214.14 48.3915C212.774 49.6384 211.065 50.4498 209.233 50.7215C207.401 50.9933 205.529 50.7131 203.858 49.9168L198.477 47.3529L206.408 29.4979Z" fill="#FA9D69"/>
<g opacity="0.2">
<path opacity="0.2" d="M211.656 35.4731C211.687 35.5058 211.728 35.5254 211.773 35.5275C211.818 35.5297 211.861 35.5143 211.895 35.4847L218.059 30.0404C218.076 30.0256 218.089 30.0077 218.099 29.9876C218.109 29.9676 218.115 29.9458 218.116 29.9235C218.118 29.9012 218.114 29.8789 218.107 29.8578C218.1 29.8367 218.089 29.8172 218.074 29.8005C218.059 29.7838 218.041 29.7701 218.021 29.7603C218.001 29.7506 217.979 29.7448 217.956 29.7435C217.934 29.7421 217.912 29.7452 217.891 29.7524C217.869 29.7597 217.85 29.7711 217.833 29.7859L211.667 35.2304C211.65 35.2453 211.636 35.2632 211.627 35.2833C211.617 35.3034 211.611 35.3252 211.61 35.3475C211.608 35.3697 211.612 35.3921 211.619 35.4132C211.626 35.4342 211.638 35.4537 211.652 35.4704L211.656 35.4731Z" fill="#474646"/>
</g>
<g opacity="0.2">
<path opacity="0.2" d="M213.989 38.2509C214.019 38.2837 214.061 38.3033 214.105 38.3055C214.15 38.3078 214.194 38.2924 214.227 38.2628L221.106 32.1864C221.123 32.1716 221.137 32.1537 221.147 32.1336C221.157 32.1136 221.162 32.0918 221.164 32.0695C221.165 32.0472 221.162 32.0249 221.155 32.0038C221.147 31.9827 221.136 31.9632 221.121 31.9465C221.09 31.9141 221.048 31.8946 221.004 31.8919C220.959 31.8893 220.915 31.9037 220.881 31.9322L214.001 38.0083C213.984 38.0231 213.97 38.041 213.961 38.0611C213.951 38.0812 213.945 38.103 213.944 38.1253C213.943 38.1476 213.946 38.1699 213.953 38.191C213.96 38.2121 213.972 38.2315 213.987 38.2482L213.989 38.2509Z" fill="#474646"/>
</g>
<g opacity="0.2">
<path opacity="0.2" d="M216.497 41.2748C216.527 41.3076 216.569 41.3272 216.613 41.3294C216.658 41.3316 216.702 41.3163 216.735 41.2867L222.223 36.4399C222.257 36.41 222.278 36.3679 222.28 36.3229C222.283 36.2779 222.268 36.2336 222.238 36.1998C222.208 36.1661 222.165 36.1456 222.12 36.1429C222.075 36.1402 222.031 36.1555 221.997 36.1854L216.509 41.0322C216.493 41.0469 216.479 41.0649 216.469 41.0849C216.459 41.105 216.453 41.1268 216.452 41.1491C216.451 41.1714 216.454 41.1937 216.461 41.2148C216.468 41.2359 216.48 41.2554 216.495 41.2721L216.497 41.2748Z" fill="#474646"/>
</g>
<path d="M200.186 35.7998L163.193 66.0301L111.985 70.6386C108.701 70.9132 105.65 72.443 103.47 74.9086C101.29 77.3741 100.15 80.5846 100.287 83.8692C100.424 87.1539 101.828 90.2586 104.206 92.5348C106.584 94.811 109.751 96.0825 113.047 96.0837C113.408 96.0837 113.771 96.0683 114.137 96.0375L169.365 91.0898C171.981 90.869 174.465 89.8497 176.48 88.1704L215.223 53.8828L200.186 35.7998Z" fill="#017AFE"/>
<path d="M208.39 34.2088L209.741 31.0855C209.947 30.6465 209.978 30.146 209.828 29.6851C209.678 29.2242 209.358 28.8374 208.933 28.6028C208.71 28.4893 208.465 28.4224 208.215 28.4062C207.965 28.39 207.714 28.4249 207.477 28.5086C207.241 28.5924 207.024 28.7233 206.84 28.8934C206.656 29.0635 206.509 29.2692 206.408 29.498" fill="#FA9D69"/>
<path d="M111.807 127.927C111.771 128.41 111.551 128.861 111.193 129.189C110.835 129.516 110.366 129.695 109.88 129.69L108.328 129.709C108.35 129.724 108.368 129.744 108.381 129.768C108.393 129.791 108.4 129.818 108.4 129.845C108.4 129.877 108.39 129.909 108.371 129.935C108.72 130.119 108.999 130.41 109.17 130.764C109.341 131.119 109.393 131.518 109.32 131.905C109.229 132.33 108.994 132.712 108.654 132.984C108.315 133.257 107.891 133.405 107.455 133.403L94.2193 133.546C92.3673 133.567 90.5512 133.035 89.0042 132.02C87.4571 131.004 86.2496 129.55 85.5366 127.845L83.2367 122.354L90.2803 120.859L90.4486 119.107L101.084 114.321C101.312 114.218 101.559 114.163 101.81 114.159C102.061 114.154 102.31 114.2 102.542 114.295C102.774 114.39 102.984 114.531 103.16 114.709C103.336 114.887 103.473 115.1 103.564 115.333C103.724 115.79 103.704 116.291 103.508 116.735C103.312 117.178 102.955 117.531 102.508 117.722L100.234 118.744L108.892 118.802C109.856 118.791 111.043 119.392 110.984 120.467C110.989 120.884 110.852 121.289 110.596 121.618C110.34 121.947 109.979 122.179 109.574 122.277C109.574 122.287 109.576 122.295 109.576 122.306L109.571 122.325L111.056 122.309C111.329 122.306 111.6 122.364 111.849 122.478C112.097 122.592 112.318 122.76 112.493 122.969C112.669 123.179 112.796 123.424 112.864 123.689C112.933 123.953 112.942 124.229 112.891 124.497C112.801 124.922 112.567 125.303 112.228 125.576C111.889 125.848 111.466 125.996 111.03 125.993L110.395 126.002C110.386 126.019 110.376 126.035 110.364 126.05C110.788 126.144 111.164 126.384 111.428 126.727C111.692 127.07 111.826 127.495 111.807 127.927Z" fill="#FA9D69"/>
<g opacity="0.2">
<path opacity="0.2" d="M101.001 122.266C101.002 122.31 101.02 122.353 101.052 122.384C101.084 122.415 101.127 122.433 101.172 122.433L109.405 122.475C109.45 122.475 109.493 122.458 109.525 122.426C109.557 122.394 109.575 122.351 109.575 122.306C109.575 122.26 109.557 122.217 109.525 122.185C109.493 122.153 109.45 122.136 109.405 122.136L101.172 122.093C101.126 122.093 101.083 122.111 101.051 122.143C101.019 122.174 101.001 122.218 101.001 122.263V122.266Z" fill="#474646"/>
</g>
<g opacity="0.2">
<path opacity="0.2" d="M100.882 125.887C100.883 125.932 100.901 125.974 100.933 126.006C100.965 126.037 101.008 126.054 101.052 126.054L110.241 126.102C110.286 126.102 110.329 126.084 110.361 126.053C110.393 126.021 110.411 125.977 110.411 125.932C110.41 125.888 110.391 125.845 110.359 125.814C110.328 125.782 110.285 125.764 110.241 125.762L101.052 125.715C101.007 125.715 100.964 125.733 100.932 125.765C100.9 125.796 100.882 125.84 100.882 125.885V125.887Z" fill="#474646"/>
</g>
<g opacity="0.2">
<path opacity="0.2" d="M100.73 129.81C100.731 129.854 100.75 129.897 100.781 129.928C100.813 129.959 100.856 129.977 100.901 129.977L108.23 130.015C108.275 130.015 108.318 129.997 108.35 129.965C108.382 129.933 108.4 129.89 108.4 129.845C108.4 129.8 108.382 129.756 108.35 129.725C108.318 129.693 108.275 129.675 108.23 129.675L100.901 129.637C100.856 129.637 100.812 129.655 100.78 129.686C100.748 129.718 100.73 129.762 100.73 129.807V129.81Z" fill="#474646"/>
</g>
<path d="M93.5355 137.475L38.1181 147.323C35.7899 147.94 33.3344 147.887 31.0349 147.171C28.7354 146.455 26.6856 145.106 25.122 143.278C23.5585 141.45 22.5448 139.218 22.198 136.84C21.8512 134.462 22.1854 132.034 23.1621 129.838L43.3439 83.0048C46.2056 76.5706 53.2786 73.6685 59.7274 76.523C62.8246 77.8937 65.2491 80.4355 66.4676 83.5894C67.6861 86.7434 67.5988 90.251 66.2249 93.3407L54.3732 121.367L91.4356 116.454L93.5355 137.475Z" fill="#017AFE"/>
<path d="M47.6685 145.861C47.6845 145.861 47.7003 145.859 47.7156 145.854L93.5826 137.639C93.6252 137.627 93.6613 137.599 93.6833 137.56C93.7052 137.522 93.7112 137.476 93.7001 137.433L91.6005 115.732C91.5893 115.689 91.5616 115.652 91.5234 115.629C91.4852 115.606 91.4394 115.599 91.396 115.609L54.6798 121.122L66.3759 93.4145C66.3928 93.3744 66.3936 93.3292 66.3781 93.2885C66.3627 93.2477 66.3321 93.2144 66.2927 93.1955C66.2533 93.1766 66.2082 93.1735 66.1666 93.1869C66.125 93.2003 66.0901 93.2291 66.0692 93.2674L54.2199 121.294C54.2063 121.323 54.2011 121.355 54.205 121.386C54.2088 121.418 54.2214 121.448 54.2414 121.473C54.2615 121.497 54.2881 121.516 54.3183 121.526C54.3484 121.537 54.3809 121.539 54.412 121.532L91.3126 115.976L93.3284 137.357L47.6212 145.529C47.5816 145.54 47.5474 145.565 47.5249 145.6C47.5024 145.634 47.4933 145.676 47.499 145.716C47.5048 145.757 47.5252 145.794 47.5563 145.821C47.5875 145.848 47.6274 145.862 47.6685 145.862V145.861Z" fill="#474646"/>
<path d="M49.7866 122.148C49.7987 122.148 49.8108 122.147 49.8227 122.144L54.41 121.533C54.432 121.528 54.453 121.519 54.4715 121.506C54.4901 121.494 54.506 121.478 54.5183 121.459C54.5305 121.44 54.5389 121.419 54.543 121.397C54.547 121.375 54.5466 121.352 54.5418 121.33C54.537 121.308 54.5279 121.287 54.515 121.269C54.5021 121.25 54.4857 121.235 54.4667 121.223C54.4477 121.211 54.4265 121.203 54.4043 121.199C54.3821 121.195 54.3594 121.196 54.3374 121.201L49.7501 121.812C49.7092 121.821 49.6731 121.845 49.6487 121.879C49.6243 121.913 49.6133 121.955 49.6179 121.996C49.6224 122.038 49.6421 122.076 49.6732 122.104C49.7043 122.132 49.7447 122.148 49.7866 122.148V122.148Z" fill="#474646"/>
<path d="M122.273 95.5213C122.316 95.5214 122.358 95.5054 122.389 95.4763C122.421 95.4473 122.44 95.4074 122.444 95.3646L123.203 85.5634C123.206 85.5183 123.192 85.4737 123.162 85.4394C123.133 85.4051 123.091 85.3839 123.045 85.3804C123 85.3769 122.956 85.3915 122.921 85.4209C122.887 85.4503 122.865 85.4922 122.862 85.5372L122.103 95.3385C122.1 95.3834 122.114 95.4277 122.144 95.4619C122.173 95.496 122.215 95.5172 122.26 95.5206C122.264 95.5212 122.269 95.5215 122.273 95.5213Z" fill="#474646"/>
<path d="M99.0505 40.0505C99.6617 40.0505 100.157 39.5563 100.157 38.9466C100.157 38.337 99.6617 37.8428 99.0505 37.8428C98.4394 37.8428 97.944 38.337 97.944 38.9466C97.944 39.5563 98.4394 40.0505 99.0505 40.0505Z" fill="#474646"/>
<path d="M87.8342 41.9411C88.4453 41.9411 88.9407 41.4469 88.9407 40.8373C88.9407 40.2276 88.4453 39.7334 87.8342 39.7334C87.2231 39.7334 86.7276 40.2276 86.7276 40.8373C86.7276 41.4469 87.2231 41.9411 87.8342 41.9411Z" fill="#474646"/>
<path d="M20.4819 175H196.319C196.409 175 196.496 174.964 196.56 174.9C196.624 174.837 196.66 174.75 196.66 174.66C196.66 174.57 196.624 174.484 196.56 174.42C196.496 174.356 196.409 174.32 196.319 174.32H20.4819C20.3916 174.32 20.3049 174.356 20.241 174.42C20.1771 174.484 20.1413 174.57 20.1413 174.66C20.1413 174.75 20.1771 174.837 20.241 174.9C20.3049 174.964 20.3916 175 20.4819 175Z" fill="#292A2E"/>
<ellipse cx="136.735" cy="16.1649" rx="9.16265" ry="9.13655" fill="#017AFE"/>
<ellipse cx="163.518" cy="16.1649" rx="9.16265" ry="9.13655" fill="#017AFE"/>
<ellipse cx="190.301" cy="16.1649" rx="9.16265" ry="9.13655" fill="#017AFE"/>
<ellipse cx="216.38" cy="16.1649" rx="9.16265" ry="9.13655" fill="#017AFE"/>
</g>
<defs>
<clipPath id="clip0_1050_33758">
<rect width="234" height="175" fill="white"/>
</clipPath>
</defs>
</svg>
