<svg width="30" height="29" viewBox="0 0 30 29" fill="none" xmlns="http://www.w3.org/2000/svg">
<path d="M26.8486 18.1156C25.9521 17.3024 24.7716 16.8797 23.5658 16.9402C22.36 17.0007 21.2272 17.5395 20.4156 18.4384L19.4254 19.5441C19.0049 20.0078 18.6861 20.5554 18.4898 21.1511L18.4011 21.419L18.1416 21.316C13.7359 19.5598 10.133 16.2252 8.02777 11.9553L7.89119 11.6737L8.19167 11.5845C8.9796 11.3408 9.68744 10.8876 10.2404 10.2727L11.2306 9.17389C12.0401 8.27225 12.4604 7.08416 12.3989 5.87094C12.3374 4.65773 11.7993 3.51875 10.9028 2.70453L9.23651 1.18677C8.79343 0.782404 8.27536 0.469932 7.71199 0.26726C7.14862 0.0645879 6.55102 -0.024302 5.95343 0.00568273C5.35585 0.0356675 4.77001 0.183938 4.2295 0.441999C3.68899 0.700059 3.20442 1.06284 2.80357 1.50955L1.81336 2.60838C1.68159 2.75257 1.56061 2.90637 1.45142 3.06852L1.40361 3.12346C0.468037 3.92698 -0.32413 5.87053 0.133415 8.28109C1.1855 13.7313 3.96531 18.692 8.0564 22.42C12.1475 26.1479 17.3296 28.4424 22.8263 28.9597C24.1839 29.113 25.5547 28.8267 26.7393 28.1424C27.1482 27.8881 27.5165 27.5733 27.832 27.2084L28.8222 26.1027C29.6308 25.2021 30.0524 24.0164 29.9948 22.8043C29.9372 21.5923 29.4052 20.4524 28.5149 19.6334L26.8486 18.1156Z" fill="#017AFE"/>
</svg>
